<svg xmlns="http://www.w3.org/2000/svg" width="34.934" height="34.933" viewBox="0 0 34.934 34.933">
    <defs>
        <style>
            .cls-1{fill:#ec008c}
        </style>
    </defs>
    <g id="Logout_Icon_Default" transform="translate(0 -.008)">
        <path id="Path_14256" d="M292.251 210.191h-13.827a1.092 1.092 0 0 1 0-2.183h13.828a1.092 1.092 0 1 1 0 2.183zm0 0" class="cls-1" transform="translate(-258.41 -193.808)"/>
        <path id="Path_14257" d="M401.1 141.072a1.092 1.092 0 0 1-.772-1.865l4.687-4.687-4.687-4.687a1.092 1.092 0 0 1 1.544-1.544l5.458 5.458a1.092 1.092 0 0 1 0 1.544l-5.458 5.458a1.084 1.084 0 0 1-.772.323zm0 0" class="cls-1" transform="translate(-372.713 -119.231)"/>
        <path id="Path_14258" d="M11.644 34.941a3 3 0 0 1-.9-.135l-8.76-2.918A2.938 2.938 0 0 1 0 29.119v-26.2A2.914 2.914 0 0 1 2.911.008a3 3 0 0 1 .9.135l8.759 2.918a2.938 2.938 0 0 1 1.985 2.769v26.2a2.914 2.914 0 0 1-2.911 2.911zM2.911 2.191a.73.73 0 0 0-.728.728v26.2a.756.756 0 0 0 .505.7l8.719 2.905a.791.791 0 0 0 .237.032.73.73 0 0 0 .728-.728V5.83a.756.756 0 0 0-.505-.7L3.148 2.223a.79.79 0 0 0-.237-.032zm0 0" class="cls-1"/>
        <path id="Path_14259" d="M47.045 11.652a1.092 1.092 0 0 1-1.092-1.092V4.011a1.822 1.822 0 0 0-1.819-1.82H27.76a1.092 1.092 0 1 1 0-2.183h16.374a4.006 4.006 0 0 1 4 4v6.55a1.092 1.092 0 0 1-1.089 1.094zm0 0" class="cls-1" transform="translate(-24.849)"/>
        <path id="Path_14260" d="M188.246 288.984h-5.822a1.092 1.092 0 1 1 0-2.183h5.822a1.822 1.822 0 0 0 1.819-1.82v-6.55a1.092 1.092 0 1 1 2.183 0v6.55a4.006 4.006 0 0 1-4.002 4.003zm0 0" class="cls-1" transform="translate(-168.96 -258.41)"/>
    </g>
</svg>
